<svg width="20" height="107" viewBox="0 0 20 107" fill="none" xmlns="http://www.w3.org/2000/svg">
<g clip-path="url(#clip0_467_1256)">
<path d="M13.75 0H6.25C2.79875 0 0 2.79875 0 6.25V13.75C0 17.2013 2.79875 20 6.25 20H13.75C17.2013 20 20 17.2013 20 13.75V6.25C20 2.79875 17.2013 0 13.75 0ZM18.125 13.75C18.125 16.1625 16.1625 18.125 13.75 18.125H6.25C3.8375 18.125 1.875 16.1625 1.875 13.75V6.25C1.875 3.8375 3.8375 1.875 6.25 1.875H13.75C16.1625 1.875 18.125 3.8375 18.125 6.25V13.75Z" fill="#FEFEFE"/>
<path d="M10 5C7.23875 5 5 7.23875 5 10C5 12.7613 7.23875 15 10 15C12.7613 15 15 12.7613 15 10C15 7.23875 12.7613 5 10 5ZM10 13.125C8.2775 13.125 6.875 11.7225 6.875 10C6.875 8.27625 8.2775 6.875 10 6.875C11.7225 6.875 13.125 8.27625 13.125 10C13.125 11.7225 11.7225 13.125 10 13.125Z" fill="#FEFEFE"/>
<path d="M15.3752 5.29148C15.7432 5.29148 16.0415 4.99319 16.0415 4.62523C16.0415 4.25727 15.7432 3.95898 15.3752 3.95898C15.0073 3.95898 14.709 4.25727 14.709 4.62523C14.709 4.99319 15.0073 5.29148 15.3752 5.29148Z" fill="#FEFEFE"/>
</g>
<path d="M20 36.9238C19.2563 37.25 18.4637 37.4662 17.6375 37.5712C18.4875 37.0638 19.1363 36.2662 19.4412 35.305C18.6488 35.7775 17.7738 36.1113 16.8412 36.2975C16.0887 35.4963 15.0162 35 13.8462 35C11.5763 35 9.74875 36.8425 9.74875 39.1013C9.74875 39.4262 9.77625 39.7387 9.84375 40.0362C6.435 39.87 3.41875 38.2363 1.3925 35.7475C1.03875 36.3613 0.83125 37.0638 0.83125 37.82C0.83125 39.24 1.5625 40.4987 2.6525 41.2275C1.99375 41.215 1.3475 41.0238 0.8 40.7225C0.8 40.735 0.8 40.7512 0.8 40.7675C0.8 42.76 2.22125 44.415 4.085 44.7962C3.75125 44.8875 3.3875 44.9312 3.01 44.9312C2.7475 44.9312 2.4825 44.9163 2.23375 44.8612C2.765 46.485 4.2725 47.6788 6.065 47.7175C4.67 48.8088 2.89875 49.4662 0.98125 49.4662C0.645 49.4662 0.3225 49.4513 0 49.41C1.81625 50.5813 3.96875 51.25 6.29 51.25C13.835 51.25 17.96 45 17.96 39.5825C17.96 39.4012 17.9538 39.2263 17.945 39.0525C18.7588 38.475 19.4425 37.7538 20 36.9238Z" fill="#FEFEFE"/>
<path d="M19.15 67.575C18.6075 66.61 18.0188 66.4325 16.82 66.365C15.6225 66.2838 12.6112 66.25 10.0025 66.25C7.38875 66.25 4.37625 66.2838 3.18 66.3638C1.98375 66.4325 1.39375 66.6087 0.84625 67.575C0.2875 68.5387 0 70.1988 0 73.1213C0 73.1238 0 73.125 0 73.125C0 73.1275 0 73.1288 0 73.1288V73.1313C0 76.0413 0.2875 77.7137 0.84625 78.6675C1.39375 79.6325 1.9825 79.8075 3.17875 79.8888C4.37625 79.9588 7.38875 80 10.0025 80C12.6112 80 15.6225 79.9587 16.8212 79.89C18.02 79.8087 18.6087 79.6338 19.1513 78.6688C19.715 77.715 20 76.0425 20 73.1325C20 73.1325 20 73.1288 20 73.1263C20 73.1263 20 73.1238 20 73.1225C20 70.1988 19.715 68.5387 19.15 67.575ZM7.5 76.875V69.375L13.75 73.125L7.5 76.875Z" fill="#FEFEFE"/>
<path d="M19.8217 105.178C19.768 105.088 19.4355 104.366 17.8353 102.881C16.1602 101.326 16.3852 101.578 18.4029 98.8891C19.6317 97.2515 20.123 96.2514 19.9692 95.8239C19.823 95.4164 18.9192 95.5239 18.9192 95.5239L15.9139 95.5414C15.9139 95.5414 15.6914 95.5114 15.5252 95.6102C15.3639 95.7077 15.2601 95.9327 15.2601 95.9327C15.2601 95.9327 14.7839 97.2003 14.1488 98.2778C12.81 100.552 12.2737 100.672 12.0549 100.531C11.5461 100.202 11.6736 99.2079 11.6736 98.5029C11.6736 96.299 12.0074 95.3801 11.0223 95.1426C10.6948 95.0639 10.4548 95.0114 9.61848 95.0026C8.54591 94.9914 7.63709 95.0064 7.1233 95.2576C6.78078 95.4251 6.51701 95.7989 6.67827 95.8202C6.87703 95.8464 7.32707 95.9414 7.56583 96.2664C7.87461 96.6852 7.86336 97.6278 7.86336 97.6278C7.86336 97.6278 8.04087 100.222 7.44958 100.544C7.0433 100.766 6.487 100.314 5.29317 98.2503C4.68187 97.194 4.21934 96.0252 4.21934 96.0252C4.21934 96.0252 4.13058 95.8077 3.97182 95.6914C3.77931 95.5501 3.50929 95.5051 3.50929 95.5051L0.651577 95.5226C0.651577 95.5226 0.222795 95.5351 0.0652839 95.7214C-0.0747264 95.8877 0.054033 96.2302 0.054033 96.2302C0.054033 96.2302 2.2917 101.464 4.82438 104.103C7.1483 106.522 9.786 106.363 9.786 106.363H10.9811C10.9811 106.363 11.3424 106.323 11.5261 106.125C11.6961 105.942 11.6899 105.6 11.6899 105.6C11.6899 105.6 11.6661 103.996 12.4112 103.759C13.145 103.527 14.0876 105.31 15.0864 105.996C15.8414 106.515 16.4152 106.401 16.4152 106.401L19.0867 106.363C19.0867 106.363 20.4843 106.277 19.8217 105.178Z" fill="#FEFEFE"/>
<defs>
<clipPath id="clip0_467_1256">
<rect width="20" height="20" fill="white"/>
</clipPath>
</defs>
</svg>
